<svg id="Layer_1" data-name="Layer 1" xmlns="http://www.w3.org/2000/svg" viewBox="0 0 499.37 131.83"><defs><style>.cls-1{fill:#fff;}</style></defs><title>stroke</title><g id="g135062"><g id="g135064"><g id="g135070"><g id="g135072"><path id="path135084" class="cls-1" d="M173.26,164.21c-.51.39-.59,1.71-1.75,1.16h0c-.35-1.84-2.55-1.78-3.41-3.09h0c-1.62-1.44,1.64-2.07-.31-3.34h0l-.93,1.89a2.54,2.54,0,0,0-2-.07h0a1.84,1.84,0,0,1-2.36-.76h0l.7-.39c0-.37-.06-.55-.43-.73h0c.62-3.19-3.25-1-3.83-3.46h0c-.54.4-1.25.05-1.9-.29h0c-.61-.32-1.17-.64-1.51-.36h0l-.14-1.49c-.09-1.12,1.31-2.1.66-3h0l-.32.54-.81-.71c-1.53-2.49-2.48-1.51-3.64-.52h0c-.81.7-1.71,1.39-3,.88h0c.84,1.1-1.5,1.91.06,2.81h0c.13,1.29-.79,1.33-1.92,1.15h0c-1.06.61.48,1.11.14,1.51h0c-1.21.78-2.59.05-3.17,1.77h0c.06-1.33-1.07-1.68-2-2h0c.14-.57-.31-1.3.19-1.87h0c-.37-.18-.6-.56-1-.35h0c-.11-1.12-1.87-2.2-.84-3.16h0c-1.06-1.28-1.82.41-2.33,1h0c-1-2.35-2.45-1.52-3.83-.68h0a3.76,3.76,0,0,1-2.25.83h0a1.85,1.85,0,0,0-.94,0h0c-.6.07-1.1.14-.82-.83h0c-.36,0-.71.19-1.08.2h0c-.94-.34-3-.65-3.34-2.16h0c-1.17.7-2-.09-2.79-.88h0c-1-1-1.85-2-3.22-.07h0L118,146.21c-1-2.22-2.12-.71-3.18-.11h0c-2.53,2.49,2.6,2.19,2.22,3.89h0c-.54.15-.76-.19-1.16-.38h0c-1,.8.46,3,.88,3.35h0l-2.3-.87c-.48,1.08-1.09.7-1.73.33h0c-.59-.35-1.21-.7-1.76.12h0c-1.55-.9-3.93-.63-5.73,0h0c-.4.43-.82.11-1.23-.21h0c-.48-.37-1-.74-1.38.08h0c-.5-.7-.91-.47-1.31-.23h0c-.44.26-.85.51-1.32-.46h0a6.92,6.92,0,0,1-2.82-.67h0a7,7,0,0,0-3.43-.64h0l0-.38c-.61-1.34-1.32-1-2.14-.61h0a2.81,2.81,0,0,1-1.4.33h0l0-.39c-.38-.15-.79-.53-1.15-.32h0c-.4.87-1.22.86-1.9.85h0c-.64,0-1.15,0-1.08.7h0l1,.36a2.9,2.9,0,0,1-2.23-.16h0l-.34-.13h0c.18,0,.35-.09.48-.4h0a1.34,1.34,0,0,0-1.33-.49h0a1.29,1.29,0,0,1-1-.21h0c-.72.22-2.46-.49-3.46-1.4h0l-2.82,1.57c-1.35.32-1.54-.55-1.8-1.42h0c-.22-.75-.49-1.51-1.61-1.48h0l.88-.59-1.58-1.08c-2-.29-3.78-1.29-5.53-1.61h0a3.75,3.75,0,0,1-2.07,0h0a4.16,4.16,0,0,0-1.19.49h0l.19.19c-.73,3.95-4.46,1.8-7.32,3h0c-.92-.73-2.5-.6-4.06-.48h0a17.53,17.53,0,0,1-2.25.08h0c-1.83-1.64-4.9-1-6.19-3h0c-.56,0-.68.95-1.23.94h0a1.83,1.83,0,0,0-2.16-.52h0a2.37,2.37,0,0,1-2.15-.27h0l.62-1-2-.12,0,.36c-1.25.6-2.63-.48-3.26-1.21h0l-.44.66a7.42,7.42,0,0,0-3.74-.52h0c-1.57.06-3.06.11-4.25-1.23h0c-2.15.8-1.69,1.9-2.83,3.62h0c-5.31.49-10-.12-15.39-.54h0l-.33.56L6,143.66c-.18,0-.16.2-.36.2h0L4,142.78c-.82-.74.3-2.82-1.41-3.33h0l.26-1.13c-.09-1.13-1.92-.69-2.38-1.61h0c1.33-1.72.8-3.39.25-5.42h0c.3-.77.52-2.27,1.72-1.37h0c1-.77.94-1.87,1.25-2.65h0c.47-.1.52.22.59.54h0c.07.28.17.56.6.55h0c1.37.72,2.13-1.18,1.73-1.52h0A15.05,15.05,0,0,0,9,124.53H9c3.1-.45,1.54-3.4,3.37-5.51h0c2-.42,1.56-3,2.78-4h0c2.49-1,2.78-4,5.53-4.26h0c3.63,1.22.73-2.07,3.38-3.46h0c-.39-.18-.42-.55-.77-.34h0c1.1-2.29,1.32-5.85,3.94-7.58h0l-1.2-.9c2-2.85-.54-7.86,2.43-10h0c-.76-2,2-.43,1.81-2.27h0c-.19,0-.41-.37-.77-.36h0C28.09,82.39,32.13,82.07,33,80h0a5.49,5.49,0,0,0-1.37-2.94h0c1.5-1.92-2.73-1.61-.71-3.73h0a2,2,0,0,1-1.64-1.11h0c-.43-.63-.77-1.27-1.34-1.06h0c-.1-1.2.6-1.14,1.24-1.07h0c.56.06,1.08.11,1-.66h0a.84.84,0,0,0,.86.22h0c.28-.07.52-.13.88.47h0c.8-1.12,3.08-.63,4.52-1.05h0l-.11-1.3c.8.72,1.33.33,2.22.13h0c.69,1.28,2-.23,3.12-.26h0l-.61-.73a2.74,2.74,0,0,1,1.36,0h0c.91.19,1.76.37,1.85-1.24h0c.41-.11.88.2,1.34.51h0c.58.39,1.14.78,1.52.35h0a1.14,1.14,0,0,1,1-.66h0l.78-1-2-.72c1-2.54,2.86-1.59,4.18-2.72h0c-.17-.86-.71-.79-1.24-.72h0a1.58,1.58,0,0,1-.75,0h0c.91-1.26,2.59-3.08,4.21-3.41h0c-.49-2.22-2.9-1.67-3.89-3.53h0l1.56-1.36c-1.93-.5-3.47-1.92-5.48-2.18h0c-.15-2.32,1.34-5.88,3.19-3.43h0l.95,1.41c.48-3,4.19-2.71,5.73-2.67h0c.72-3.37-2.25-1.21-3-2.84h0c1-2.77,2-.2,3.06.05h0l-.53.67c3.08,1.33,7.34,1.06,9.27-2.62h0c1.69,2,3.84,1.49,5.93,1h0c1.49-.35,3-.7,4.2-.14h0c-.46-.94-1.21-1.07-2-1.43h0c2.85-1.92,6-.71,9.26.5h0c3.31,1.2,6.85,2.41,10.57.51h0l12.71.2c-.14-.82.48-1.61,1.07-1.39h0l1.53,0-2.1,1.34c.42.86,1.18.8,1.93.74h0a3.37,3.37,0,0,1,1.1,0h0c1-2.42,2.18-1.59,3.67-2.72h0c.92.36,4,2.6,6.08.79h0l2.09-1.36-.07,1.39c.46,1.39,1.46-.2,2.06-.66h0c.25.34.49.93,1,.7h0c.06-.6.77,0,1.7.54h0c1.23.76,2.85,1.52,3.91-.45h0l1.53,0c-.22,1.44.85,1.43,1.69,1.42h.29c1.4.73,2.14-.89,3.13-2h0c2.85-1.17,6.12,1.15,8.75,1.76h0c-9.65.83-20.6,3.56-29.81,2.77h0c-5.4,1.19-11.53-.3-17.4,2.5h0a3.86,3.86,0,0,0-2.52-.74h0l-1.08,1.38c-.74,0-1.57,0-2.45,0h0c-3-.08-6.64-.15-8.81,1.25h0a56.56,56.56,0,0,0,11.38-.17h0a52.77,52.77,0,0,1,11-.18h0c-6.38,2.09-13.62,1.07-20,3.17h0c.63,1.16,2,.36,2.46,2.11h0c.52-1.51,1.43-1.41,2.36-1.31h0a3.68,3.68,0,0,0,1.24,0h0l.5.7c1-2.4,2.88-.17,4,.77h0c8.75.6,18.16.39,27.62.18h0c11.81-.27,23.68-.53,34.41.79h0c-.21,1.05.63,1.39.92,2.12h0c.76.23,1.06-.93,1.59-1.39h0c10.45,0,23.4.16,33.95,3.33h0c2.28-1.44,4.11-.83,6-.22h0a7.12,7.12,0,0,0,4.73.38h0l24.37,1.08c4.32-3.75,9.51-4.13,14.43-3.94h0l.06-1.4c.69,1.41,1.22.55,1.8-.3h0c.39-.57.8-1.14,1.32-1h0c3.22,1.6,5.86.81,8.49,0h0c2.29-.69,4.59-1.37,7.28-.47h0a22.34,22.34,0,0,1,4.88.08h0c3.46.28,7.21.57,10.48-1.92h0c-4.7-1.16-9.51-.85-13.92-.53h0a47.89,47.89,0,0,1-8.47.16h0c-.26.37-.69.69-.55,1.39h0c-.46-.43-1.22-2.37-2.19-2.75h0c.36,0,.59-.45.82-.74h0c-.89-.87-2.1-.81-3.31-.75h0a10.28,10.28,0,0,1-1.76,0h0l0-.68c-6.74-.81-14.62.8-23,1h0l1.61-1.36L215.23,46c7-1,13.71-3.14,21-3.14h0c.51-2,2.46-1.82,3.69-2.71h0c.83-2,3-1.4,3.81-1.27h0a1.5,1.5,0,0,0-.72.6h0a27.18,27.18,0,0,0,8.55.84h0c1.37,0,2.73,0,4.12.07h0l.06-1.4c.37,2,1.47,1.46,2.56,1h0c.76-.36,1.52-.73,2-.19h0c1.34-.73,3.2-.67,5.14-.61h0a13.14,13.14,0,0,0,5.61-.61h0a34.85,34.85,0,0,0,7.71-.74h0c4.34-.74,8.74-1.47,11.63.35h0l1.08-1.37a176,176,0,0,1,20.1-.38h0A162.48,162.48,0,0,0,331.18,36h0l-.05.7a33.48,33.48,0,0,1,8.94-.56h0a33.51,33.51,0,0,0,8.94-.56h0a1.84,1.84,0,0,0-.17-.37h0c2.34,1.55,4.26,1.18,6.18.8h0c2.05-.4,4.1-.8,6.64,1.17h0c5.94-.49,10.46,1.08,16.71,1.65h0l0,.68c3.23-1.89,6-.41,9,1.08h0a14.87,14.87,0,0,0,6.62,2h0c.46.94,1.23,1.06,2,1.42h0c1.54-1.29,3.19-.43,4.94.44h0a7.61,7.61,0,0,0,3.66,1.09h0l.95,1.4c-.95.4-2.13,0-3.29-.39h0c-1.18-.4-2.34-.79-3.29-.4h0l1.93,2.79c-3-1.78-5.63-5.63-9.58-2.22h0l0-.71a5.88,5.88,0,0,1-1.94-.41h0c-1.61-.52-3.24-1-3.73,1.72h0a24.12,24.12,0,0,0-12.2-.18h0c.38,3,3.61,2.95,6,2.87h0a16.13,16.13,0,0,1,7.06,1.49h0c.63-.67,1.2-1.82,2.1-1.36h0l-1.07,1.38a17.26,17.26,0,0,1,4.89.38h0c2.79.49,5.6,1,8.35-.86h0c-1.6,1.83-4.72,1.32-6.76,3.36h0a22.51,22.51,0,0,1,5.95.77h0c3,.65,6.19,1.3,9.78.18h0c-.46-.83-1.4-.76-2.3-.69h0c-1.26.1-2.45.2-2.15-2.16h0c6.22,1,13.14,1.94,19.42-1.78h0c-.39-.78-1.15-.74-1.87-.71h0c-1,0-1.92.1-1.57-2.13h0c5.58,1.24,10.92,0,16.32-1.25h0a51,51,0,0,1,11.81-1.77h0c-3.51.4-7.64,2.08-11.34,3.29h0c.3.86.94.79,1.59.72h0a2.58,2.58,0,0,1,.92,0h0c0,1.05-.91,1.5-.62,2.77h0c.41,0,.85.14,1.27.19h0c.07-.14.12-.26.2-.41h0c1.45-.41,2.84-1.39,4.29.26h0l1.11-1.9c-.29.76.49,1.31.35,1.87h0c.36-.2.9-.4.67-1h0l.41,0h0c.69,0,1.5.09,1.72-1h0c0,.38,0,.57.25.74h0l1.33-1.52-.4-.57h.73c0-1.29,1.5-1.72,2.21-2.1h0l-.67.74c1.23-.76,2.38-.22,3.35.31h0l.05-1.48h.37c.42,2.06.49,1,.75,0h0c.16-.62.39-1.24.81-1.18h0l.13,1.31.92,0c.54-.21,0-.57-.28-.93h0c.61.73.72-.41,1.26-.41h0c.17-.21-.49.55.09.93h0c.36,0,.92,0,1.06-.59h0L462,48h.35c-.24,1.5-.88.4-1.49,1.72h0c-.72.39-.07,1.3.1,1.31h0c0,1.86.21,2,.95,4.27h0l.89-.58c.37.67.56,1.09.72,1.44h0c2.22.51,4.44,1,6.65,1.46h0c1.16.47,1.95,2,3.49,1.43h0c0-3.93,3.59-2.61,4.31-5.48h0l4,1.46-1.06,1.36c.34,2.22-1.74,4.83-1.86,7.61h0c2.63-1.8,2.69,2.82,2.3,5.6h0l.5.7L482.93,69a2.6,2.6,0,0,0,.35,3.49h0l1.55-.69c-.39,1,.42,3.83,1.86,4.21h0l1.13-2.76c-.5,1.61.58,2.33.87,3.5h.49c.5,2.08-1.58,1.46-1.66,3.43h0l3,2.14c-.85,2.19-3.41,4.22-1.83,6.92h0l2.55,0,.14-3.48c.24.36.49,1,1,.71h0l1.07-1.36a1.61,1.61,0,0,1-.57,1.38h0l1.89,3.5c1.1-.1,2.3-2.28,1.15-3.45h0l-1.46-1.42c.28-.34.73-.68.58-1.37h0c1.52-.57,1.7.69,1.76,1.95h0c.07,1.45,0,2.9,1.64,1.57h0c-1.79,4.14.16,9.73,1.45,13.93h0a5.85,5.85,0,0,1-1.74,4.83h0a8,8,0,0,1-4.41.6h0c-1.94-.1-3.87-.19-5.35,1.33h0l0,.44c1.83,0,3.76-1.15,5.8-.09h0c-.16.17.26.73-.12.74h0a21.22,21.22,0,0,1-5.55,1.86h0l.13,2.61c-.5.56-1,1.09-1.54,1.59h0c.14.24.43.45.56.67h0c.8,2.76-1,5.61-2.26,7.71h0c-1.06.56-1.82,2.48-3.15,1.94h0c-4-1.4-8.81.78-12.49,1.06h0c-1.72,1.37-4.75.69-6.48,2h0c-1.73-.89-4.82-.25-6.23.53h0c-4.48,1.61-8.94,1.34-13.88,2.05h0c-.88.39-2,1.93-3.11.45h0c-1.7,1.54-4.83-.24-5.91,2h0c-.93-1.17-1.67-.76-2.38-.35h0c-.74.42-1.46.85-2.32-.46h0c.35,1.64-.64,1.6-1.66,1.56h0c-.82,0-1.65-.06-1.82.78h0c-1.49-1.8-2.69-1.08-3.92-.37h0c-1,.59-2.06,1.18-3.31.37h0a9.14,9.14,0,0,1-3.17.28h0a10.1,10.1,0,0,0-2,0h0c-.46.93-1.28.21-2,0h0c-.89,1.81-2.43,1.67-4,1.52h0a5,5,0,0,0-3.55.54h0c-1,.6-.53,2.07-2.25,1.56h0c-.71.39-3,.07-2,1.91h0l-3.49.1c-.21,1.85-1.45,2.45-2.64,3.6h0c-1.28,0-3.23,1.2-4.62.13h0c-.24,1.92-1.2,1.38-2.22.84h0c-.77-.41-1.59-.82-2.16-.16h0l.21.35-1.08.22c-1.46-.78-2.89-.46-4.31-.15h0a9.61,9.61,0,0,1-2.53.33h0l1,1.1L376,148.9c-1.34,1.36-2.76.08-3.9-.44h0l-.56,2.24c-2.44-.49-4.42-1.93-6.59-1.32h0c-1.94-1.08-3.67.28-4.07,2.15h0l-.42-.54-.63,1.15c-.25-2.81-2.63-.5-3.56-2.55h0A10.83,10.83,0,0,1,351,147.3h0l.16-.18c-.59-.36-1.06-1.28-1.56-.7h0c-.78,1.5-2.48,1-3.7,1.77h0c-2.93-1.43-6.1.14-8.95,1.34h0c-1-.15-1.92-.69-2.2.44h0l.4.53a2.48,2.48,0,0,0-.8.13h0c-.57.13-1.2.26-1,0h0c-1.27.41-3.34-.12-4.32,1.41h0c-1.11-.16.09-1.14-1-1.09h0c-.56-.2-.93-.17-.81-.9h0l2-.26c-.63-1.31-1.45-1.05-2.29-.78h0c-.69.21-1.41.43-2.05-.23h0c-.17.2-.52.37-.31.58h0a.42.42,0,0,0,.41.35h0c-.16.17-.57,0-1.09-.23h0a2.26,2.26,0,0,0-2.1-.06h0c-.58-.36-2.62-.48-1.64-1.82h0a.67.67,0,0,0-.68-.27h0a.66.66,0,0,1-.67-.26h0c-.38-1.77.29-1.32,1.08-.86h0c.53.31,1.11.62,1.45.24h0a6.59,6.59,0,0,0-1.56-.9h0l1.23-.78-1-.91c-2.23,1.73-4.63-.25-6.65,2h0c-.76-.17-1.35-.71-1.83.25h0c-2.08-.5-5.07-.81-6.82.34h0c-.17-1.86-1.92-.87-3.27-1.4h0c.38.18.41.57.78.36h0c-.39.54-.87.46-1.35.38h0c-.55-.09-1.1-.18-1.52.63h0c-.42-.56-2.39.07-2.31-1.06h0c1.82,1,2.67.24,3.57-.54h0a2.77,2.77,0,0,1,3.33-.75h0c-1.58-1.7-3.12-1.34-4.71-1h0a5,5,0,0,1-4.11-.3h0l1.48-.23-.43-.56a4,4,0,0,0,2.23-.43h0c1-.4,1.82-.79,2.53-.05h0c.37-.25.76-.05,1.15.15h0c.51.27,1,.54,1.61-.23h0l-.84-1.28a4.8,4.8,0,0,0-2.65-.48h0c-.45-.92.5-.76.25-1.51h0c-.37.31-.74,0-1.1-.21h0c-.33-.24-.66-.48-1-.29h0l-.15-1.51-1.09,0c-.5.58-2.16.6-2.61,1.93h0c-.58-1.29-1.29-.9-2-.51h0c-.72.4-1.48.79-2.15-.51h0c-1.53-.52-3.49.48-5.5.53h0l0-.38c-.15-.35-.41-.33-.68-.3h0a1.06,1.06,0,0,1-.47,0h0c.15-.19.55-.19.32-.57h0a1.17,1.17,0,0,0-1.16-.53h0c-.59,1.51-3.31.09-3.13,2.14h0c-1-.74-2.15.6-3.27.64h0c-3.5.28-6.64,2.22-10.91,2.15h0c-.45-.89-.92-1.12-1.39-1.08h0v.23a4.65,4.65,0,0,0-.61-.08h0c-1,.48-2.12,1.62-3.21.31h0c-.55.21-.5.76-.28,1.13h0c-.33.58-2.27-.32-1.74,1.34h0c-1.34-.5-2.09-.69-2.75-1.59h0a5.19,5.19,0,0,0,.44-1h0a22.56,22.56,0,0,1-12.74.29h0a10.3,10.3,0,0,1-1.56.72h0a7.42,7.42,0,0,1,1.39.56h0l-.19.33c0,.45.48.43.92.41h0a1.2,1.2,0,0,1,.79.13h0c2,3.32-2.47,3.24-3.23,5.12h0c-6.31-.2-.61,5.43-2.85,7.37h0c-.42-.55-.75,0-1.1,0h0l.62.72-.32.36c-.33.59.61.76.46,1.12h0c-.19,0-.54.19-.58-.15h0c-.62,1.11-2.37.23-1.49,1.9h0c-1.61.58-2.11-.9-3.1-1.6h0c-.6,2.06-1.27,1.06-2.12.07h0c-.54-.64-1.15-1.27-1.85-1.11h0c-.53.22-1.06.78-1.31,0h0l.33-.38-.38-.35c-.58-1.66-1.65-1.19-2.7-.72h0c-.82.36-1.64.73-2.18.08h0c-.16.19-.33.21-.32.37h0c.05.58,1.22,1.29.15,1.7h0c1.14.35.07.93.13,1.48h0l-1.79-1.27-.16.21c-.9,2.25-2.6,1.94-4.42,4h0c-1.13.22-2.55.64-3.39-.29h0c-1.09,0-3.31.1-3.59,1h0c-.75-.43-1.08,0-1.42.49h0c-.36.5-.73,1-1.64.34h0a2,2,0,0,1-2.25,1.15h0c-.8,0-1.56,0-2,1h0c-.69-1.53-1.29-1.35-2-1.18h0a1.82,1.82,0,0,1-1.65-.19h0c-1.67-.15-4.76-1.58-5.7-3.8h0l-.9.41a1.25,1.25,0,0,0-1.41-.49h0c-.56.06-1.1.13-1.47-.74h0c-.64-.74-.59-2.44-1.6-3.15h0c-.28-1.11,0-2.41.88-2.64h0c-.26-.74.57-1.7-.6-2.42h0a1.54,1.54,0,0,1,.61,0h0c.45,0,.88.06.82-.56h0c-.19,0-.38-.19-.58-.18h0l.64-1c-.8-.72-.68.41-1.21.58h0c-.76-1-1.53-.69-2.3-.37h0c-.75.32-1.5.64-2.22-.26h0c-.45,1.14-3.13.1-3.72,1.61h0c.51.71.89.49,1.26.28h0c.38-.23.74-.46,1.2.39h0c.57,2.24-1.63,2.47-2.66,3.25h0c-2.14,1-1.26-1.66-3.13-1.78h0c-1.56,1.15-2.85,1.18-2.65,3.42h0a4.69,4.69,0,0,0,2.32,1.07h0c1.23,1.26,1.16.52.93,2h0c.38.15.53-.22.92-.23h0l0,.57c-.29.76.44.73,1,.72h0c-2.7,1,.79,2.59-1.1,4.15h0c-.24-.76-1.06-1.29-1.55-.72h0l0,2.05-3-1.79ZM222.47,143c2.91.88,6.21.46,9.2.24h0c-.25-.75-.1-.93.45-1.15h0c0,.19,0,.58.22.58h0c.38-.94,1.59-.57,1.83-1.24h0a22.59,22.59,0,0,0-3.77,0h0c-.68-1.37-1.22-.71-1.78,0h0c-.4.47-.81.94-1.29.69h0a39.31,39.31,0,0,1-4.86,1m-7.16-2.5.68-.78a2.69,2.69,0,0,1,.65.45h0c.57-.19,1.15-.41,1.72-.59h0l.32-.68a5.31,5.31,0,0,0,1.94-.17h0a3.29,3.29,0,0,1,3.87-1.6h0l0-1.4-4.25-.06c0,.07,0,.15,0,.21h0l-1.88-.34c-1.24.79,1.05,1.46-.14,2.63h0c-.82-.93-2-1.26-2.25-2.36h0c-1.16-.76-1.66,0-2.11.8h0a3.65,3.65,0,0,1,.44.36h0a1.26,1.26,0,0,0-.43,0h-.2a2,2,0,0,1-.85,1h0c.1,0,.2.08.32.17h0a.79.79,0,0,0,.46.18h0l.3,1.3a1.32,1.32,0,0,1,.44-.1h0c.52,0,.31.7.94,1m23.05-1.94c.5,1.38,1.3.78,2.1.19h0a2.5,2.5,0,0,1,1.29-.65h0l.42-.17h0c2.53-.94,5.18-.54,7.76-.13h0a17.26,17.26,0,0,0,6,.27h0c-.42-1.67-1.88-3-1.94-5.12h0c-.58-.37-1.38-.91-1.91-.52h0c.6.37-.09.93-.23,1.31h0c-.58-.35-2.13-.33-2-1.53h-.06c-.44,1.34-1.51,1.16-2.51,1h0c-.7-.12-1.37-.24-1.79.15h0l.42.54a10.29,10.29,0,0,1-3.49.29h0a3.85,3.85,0,0,0-1.12-1.25h0c-1,.09-2,.15-2.94.25h0c.38.76,1.06.74,1.74.73h0c.67,0,1.35,0,1.75.71h0c0,1.54-.28,1.9-.75,1.92h0c.13.64.33,1.3,1,1.38h-.34a11.67,11.67,0,0,0-3.43.64m-17.87-4.21a.79.79,0,0,0-.09.63h0a1.06,1.06,0,0,0,1.16-.68h0c0-.05,0-.08,0-.13h0l-1,.18Zm218.17-16c2.06,2.36,5.37,2.09,8.28,1.64h0c1.81-.61.87-2.64,2.85-3.24h0c.81.72,1.69,2.2,2.58,2h0l.26-1.33c.21.2.93,0,.62.57h0c-.39,0-.33.38-.51.58h0c1.5,1.15,3.12.77,4.7.4h0a6.59,6.59,0,0,1,3.27-.23h0c1.64-.26,3.21-1.23,4.57-.51h0a11,11,0,0,1,1.5-.67h0a77.87,77.87,0,0,1-15.16-2.27h0a2.45,2.45,0,0,0-.08.29h0c-1.21,1-3.33-.08-4.16-1h0l.36-.25-1.6-.42h0c-.6.1-1.22.32-1.78.47h0a7.24,7.24,0,0,0-.11,1.27h0a2.44,2.44,0,0,0-.58-1.17h0a1.31,1.31,0,0,1-1.24-.7h0a5,5,0,0,0-.85-.2h0a2.52,2.52,0,0,1,1,1.32h0L440.67,116l1,.91.33-.38a.9.9,0,0,1,.62.9h0c-.85.42-2.83,1.21-3.84.29h0a.62.62,0,0,0-.13.59M482,114.6l-.52.39.41.56c.45-.6,1.24-.58,2-.48h0a31,31,0,0,1,3.24-2.94h0a3.36,3.36,0,0,1,.27-1h0a25.66,25.66,0,0,1-3,.27h0l1.94-1c-1-.54-.38-1.11,0-1.76h-.59a3.7,3.7,0,0,1,.24-.69h0l-2.83,0c.07.28.18.49.4.47h0l-1.41.9c.09,1.86,1.86,4.31-.72,4.85h0c-2.3-1.25-4.77-.61-6.86,1.19h0l.26.23a18.83,18.83,0,0,1,5.3-1.26h0a4.72,4.72,0,0,1,1.83.33m4.92-6.77c0,.06,0,.17,0,.25h0a3.38,3.38,0,0,0,1.41.33h0a1.44,1.44,0,0,0-.53-.85h0c-.27.09-.55.19-.84.27m-4.56-3.26c.74.06.6,1.83.74,2.94h0a15.94,15.94,0,0,1,6.66-2h0c1.26-.3,2.25-.79,1.88-3h0c1.08-1.27,3.34-2.74,3.3-5.51h0a.65.65,0,0,1-.31-.27h0l0,0c0-.54-1.7-.52-1.06-1.46h0a1.48,1.48,0,0,1,.67,0h0c-.47-3-.08-8.75-2.58-4h0c-.59,1.39-3.39,1.69-1.72,4.16h0l.48.7-.35.31h0c1.51-.06,3.33-.13,1.94,1.79h0c-.79,0-2.55.12-3.51-.59h0c-2.77,1.78-6.1,2.8-7,7.07h0a5.9,5.9,0,0,1,.76-.23h0a.4.4,0,0,1,.15,0M477.46,89l2.05-.67-.46-.68a4.62,4.62,0,0,0-.76-.08h0c-.66,0-.25.42-.83,1.43m-38.18-8.28.2.2-.49.66c3,2.82,6.61,2.57,10.31,2.31h0c1.33-.09,2.66-.18,4-.14h0c7.06-2.21,13.63-1.28,20.87-.35h0c.5-1.62-.57-2.34-.87-3.5h0c-5.75-3.8-10.27-7.57-17.57-5.14h0c-2.42.67-5.6.22-8.5,1h0a1.26,1.26,0,0,0,0,.28h0a1.61,1.61,0,0,1-.22-.23h0a9.14,9.14,0,0,0-1.73.71h0a1.6,1.6,0,0,0,.41,1h0c-.52.87-.9.06-1.38-.34h0a7,7,0,0,0-.88.78h0c.06.69.31,1.43.9.91h0l-.14.36c-.6.34-1.44.75-1.76-.06h0a2.2,2.2,0,0,1-.14.18h0a1.47,1.47,0,0,0-.37-.24h0a.68.68,0,0,0-.28.58h0l-.4-.37-.53.38c.39.18.42.54.65.91h0c-.51.6-1.31,0-1.71-.51h0l-.33.56ZM436,81.4l.37.47a2.92,2.92,0,0,0,1-.43h0a1.56,1.56,0,0,0-.77-.23h0a1,1,0,0,0-.6.19M233.66,78.25a4.46,4.46,0,0,0,3.53-.74h0a2,2,0,0,1-1.19-.28h0a2.6,2.6,0,0,0-1-.3h0c-.47,0-.92.3-1.34,1.32m3.53-.74c.41-.08.8-.42,1.13-1.29h0a3.22,3.22,0,0,1-1.13,1.29m4.85-4.7L238,72.75c1.17,2.22,2.52.49,4.06.06m232.19-3.29.06-1.39c-.73-.35-1.5-.48-2-1.43h0c-1.44-1.77-3.18-1.38-4.94-.83h0a5,5,0,0,0-2.7.71h0a14,14,0,0,0,2.7-.71h0c2.52.08,4.77,2.15,6.84,3.65M211.29,66.06l-10.6-2.24c-2-1.43-4.31.16-3.88-4.25h0c-.89-.46-1.46.69-2.09,1.37h0c-4-2.28-7.69-1.71-11.33-1.14h0c-2.63.41-5.25.82-8,.15h0l-.06,1.37c-5.89.61-13.32,0-19.38,1.09h0l0,.7,31,.49h0c5.07,2.66,9.93,2.43,14.91,2.21h0c1.39-.07,2.79-.13,4.2-.13h0a31.94,31.94,0,0,1,5.2.38m214.28-12.6c2.58-.65,6.67-1.28,7.7-2h0ZM350,48.8l-7.14.39c2.67.43,5.15,2.13,7.14-.39m-9.68.54,2.54-.15a6.2,6.2,0,0,0-1.05-.09h0a4.6,4.6,0,0,0-1.49.24m24-1,1.52,0,0-.69-1.54,0Zm-133.76-2.1,9.18-.56-5.55-.78ZM84,150.53l.34.11h0a1,1,0,0,1-.34-.11m-1-.07c.23-.35.55-.18.87,0h0l.16.08h0a2.68,2.68,0,0,0-1-.07m252.19,0s0,0,0,0h0Zm-93-12.54h0m10.08-88.62a.71.71,0,0,1,.24.06h0a.77.77,0,0,1-.24-.06m96.14-14.47a.73.73,0,0,1,.48.33h0q-.24-.15-.48-.33m-.55,0-.31,0h0l0-.69c.28.26.56.49.83.7h0a2.47,2.47,0,0,0-.55,0" transform="translate(-0.5 -34.17)"/></g></g></g></g></svg>